<?xml version="1.0" encoding="UTF-8"?>
<svg id="Layer_2" data-name="Layer 2" xmlns="http://www.w3.org/2000/svg" viewBox="0 0 769.83 868">
  <defs>
    <style>
      .cls-1 {
        fill: #fff;
      }
    </style>
  </defs>
  <g id="Layer_1-2" data-name="Layer 1">
    <g>
      <path class="cls-1" d="M714.06,548.14c53.06-2.04,76.86,67.69,32.67,97.62-6.76,4.58-21.98,6.62-23.38,14.27-1.48,8.09.81,19.34-.02,28.21-.79,8.44-7.39,37.34-6.46,42.11.62,3.2,9.37,9.39,12.16,13.41,55.51,79.92-41.05,160.55-106.88,106.88-62-50.55-15.5-145.79,61.21-135.3-1.05-18.88,8.08-46.82,4.64-64.67-1.44-7.47-14.21-14.42-18.43-21.57-3.16-5.35-5.3-19.92-9.13-22.03l-512.37-63.58c-6.21.47-6.82,8.62-10.57,13.02-49.84,58.6-128.12-11.28-84.65-65.82,29.37-36.85,90.36-17.87,94.47,28.91l519.22,63.62c.03-7.59,10.43-15.73,11.71-20.2,1.6-5.59-3.94-26.32-5.47-33.6-1.78-8.5-11.83-50.65-15.12-54.91-1.98-2.56-7.21-2.1-10.37-4.25-14.61-9.93-20.72-17-24.32-35.05l-416.79-58.21c-26.74,51.9-104.49,20.21-85.72-37.52,14.77-45.42,91.1-36.31,90.04,13.41l416.15,58.71c.47-2.03,1.92-4.35,2.07-6.26.81-10.7-30.47-57.23-38.56-68.58-55.45-77.78-130.94-140.71-205.72-199.06-6.31-3.83-11,2.4-17.13,3.91-26.19,6.44-51.41-9.71-53.23-37.2-.34-5.19,3.5-11.19,1.19-14.92-1.67-2.69-46.76-29.23-53.83-33.38-10.22-6-41.58-19.45-47.56-25.37-10.28-10.18-4.88-28.52,9.69-30.59,14.41-2.05,46.77,18.38,60.53,26.25,12.85,7.36,46.23,32.85,55.92,36.04,9.67,3.18,20.74-6.05,37.37,4.78,18.27,11.89,13.75,25.76,22.27,36.55,10.15,12.85,61.82,47.35,79.04,62.13,70.57,60.55,138.14,130.81,181.1,214.18,34.61-.48,62.21,22.04,56.36,58.65-2.21,13.84-14.12,21.55-20.57,32.61l18.49,76.81Z"/>
      <path class="cls-1" d="M59.24,640.59c119.57-18.61,122.78,167.23.05,149.4-79.4-11.53-78.69-137.17-.05-149.4Z"/>
      <path class="cls-1" d="M249.81,179.44c65.42-11.13,70.43,88.14,9.25,87.92-55.27-.19-58.31-79.57-9.25-87.92Z"/>
    </g>
  </g>
</svg>